<svg xmlns="http://www.w3.org/2000/svg" viewBox="0 0 541.84 189.84"><defs><style>.a{fill:#0c0c0c;}.b{fill:none;stroke:#0c0c0c;stroke-linecap:round;stroke-miterlimit:10;}</style></defs><path class="a" d="M211,41.63V40.44h7.79q4.31,0,8.63-.12t8.63-.13a67.41,67.41,0,0,1,8,.51,45.33,45.33,0,0,1,8.37,1.81A37.83,37.83,0,0,1,260.28,46a25.78,25.78,0,0,1,6.6,5.58,26.06,26.06,0,0,1,4.57,8,31.86,31.86,0,0,1,1.69,10.91,31.58,31.58,0,0,1-1.69,10.83,26.36,26.36,0,0,1-4.53,8A25.81,25.81,0,0,1,260.45,95a37,37,0,0,1-7.57,3.51,42.54,42.54,0,0,1-7.79,1.82,54.5,54.5,0,0,1-7.15.5c-3.21,0-6.41,0-9.6-.08s-6.39-.08-9.6-.08H211V99.5h7.79V41.63Zm24.54,58.12a29.38,29.38,0,0,0,9.39-1.31,19.78,19.78,0,0,0,6.56-3.55,17.57,17.57,0,0,0,4.23-5.12,26.23,26.23,0,0,0,2.37-6,37.81,37.81,0,0,0,1.06-6.34q.25-3.18.25-6A81.89,81.89,0,0,0,258.5,59a24.17,24.17,0,0,0-3.34-9.47,16.13,16.13,0,0,0-7-6q-4.53-2.12-11.89-2.12c-1.13,0-2.14,0-3,0a13,13,0,0,0-2.2.22V99.5A43.47,43.47,0,0,0,235.49,99.75Z"/><path class="a" d="M308.34,40.44v1.19h-7.78V99.5h7.78v1.19H280.5V99.5h7.79V41.63H280.5V40.44Z"/><path class="a" d="M334.49,40.44l28.17,40.28h.17V41.63h-7.78V40.44H372v1.19h-7.78v59.06H361.9L323.83,46.45h-.17V99.5h7.78v1.19H314.52V99.5h7.78V41.63h-7.78V40.44Z"/><path class="a" d="M428.41,57.7q-2.21-8.3-6.6-12.9t-11.76-4.53a17.46,17.46,0,0,0-9.4,2.24,15.26,15.26,0,0,0-5.45,5.84,23.84,23.84,0,0,0-2.5,8.21,72.45,72.45,0,0,0-.59,9.35v7.36a70.26,70.26,0,0,0,1,13,23,23,0,0,0,3.18,8.46,12.12,12.12,0,0,0,5.58,4.61,21.61,21.61,0,0,0,8.17,1.4,11.77,11.77,0,0,0,6.17-1.4,9.35,9.35,0,0,0,3.51-3.81,16.21,16.21,0,0,0,1.57-5.71c.22-2.2.34-4.6.34-7.19V79.36h-8.72V78.18h26.15v1.18h-5.5V98.74H432a2,2,0,0,0-1-1.48,3.55,3.55,0,0,0-1.82-.47,9.4,9.4,0,0,0-3.85.81l-3.93,1.73a40.44,40.44,0,0,1-4.87,1.74,24.13,24.13,0,0,1-6.64.8A30.53,30.53,0,0,1,398,99.46,32.27,32.27,0,0,1,380.94,83a30.34,30.34,0,0,1,.29-25.3,33.56,33.56,0,0,1,17.69-16.37,29.77,29.77,0,0,1,11-2.24,24,24,0,0,1,4.91.5c1.58.34,3,.7,4.4,1.06s2.56.72,3.64,1.06a9.23,9.23,0,0,0,2.7.51,2.94,2.94,0,0,0,1.7-.38,3.52,3.52,0,0,0,.93-1.4h1.44V57.7Z"/><path class="a" d="M446.64,57.7a33.45,33.45,0,0,1,17.73-16.37,30.05,30.05,0,0,1,11.08-2.24,32.67,32.67,0,0,1,21.7,8.46,31.41,31.41,0,0,1,7.2,9.86,30.15,30.15,0,0,1,2.75,13.07,28.83,28.83,0,0,1-2.59,12.06,33.27,33.27,0,0,1-6.93,10,32.8,32.8,0,0,1-10.07,6.81,29.71,29.71,0,0,1-12.06,2.5,30.71,30.71,0,0,1-12-2.41A32.25,32.25,0,0,1,446.34,83a30.29,30.29,0,0,1,.3-25.3Zm11.89,27.63a25.52,25.52,0,0,0,3.17,9.22,11.5,11.5,0,0,0,5.59,4.78,22,22,0,0,0,8.16,1.36q6.26,0,9.82-2.33a14.37,14.37,0,0,0,5.33-6.43,31,31,0,0,0,2.24-9.73q.46-5.62.46-12.23c0-4-.12-7.71-.38-11.29a28.91,28.91,0,0,0-2.15-9.48,14.72,14.72,0,0,0-5.38-6.52q-3.6-2.4-9.94-2.41-5.93,0-9.48,2.24a14.3,14.3,0,0,0-5.41,6.31,31.12,31.12,0,0,0-2.46,9.64,118.46,118.46,0,0,0-.59,12.27A86.52,86.52,0,0,0,458.53,85.33Z"/><path class="a" d="M219,145.08V122.9h5.46a13.49,13.49,0,0,1,5.49,1,10.29,10.29,0,0,1,3.67,2.67,11.16,11.16,0,0,1,2.06,3.63,12.19,12.19,0,0,1,.66,3.9,11.36,11.36,0,0,1-.88,4.55,10.31,10.31,0,0,1-2.39,3.45,10.66,10.66,0,0,1-3.45,2.21,11,11,0,0,1-4.09.76Zm1.53-1.47h4.59a10.79,10.79,0,0,0,3.75-.65,9.23,9.23,0,0,0,3.08-1.91,8.89,8.89,0,0,0,2.07-3,10.22,10.22,0,0,0,.75-4,10.37,10.37,0,0,0-.64-3.64,8.78,8.78,0,0,0-1.92-3.08,9.16,9.16,0,0,0-3.15-2.12,11.34,11.34,0,0,0-4.38-.78h-4.15Z"/><path class="a" d="M246.58,145.33a6.66,6.66,0,0,1-3.37-.84,6.12,6.12,0,0,1-2.3-2.3,6.5,6.5,0,0,1-.83-3.26,6.17,6.17,0,0,1,.88-3.25,6.64,6.64,0,0,1,2.36-2.35,6.35,6.35,0,0,1,3.29-.87,5.43,5.43,0,0,1,3.67,1.28,7.11,7.11,0,0,1,2.14,3.34l-10.68,4.13-.44-1.07,9.78-3.81-.31.44a5.84,5.84,0,0,0-1.61-2.16,4,4,0,0,0-2.64-.9,4.73,4.73,0,0,0-2.53.69,5.09,5.09,0,0,0-2.47,4.46,5.26,5.26,0,0,0,.64,2.56,5,5,0,0,0,1.8,1.91,4.9,4.9,0,0,0,2.65.72,5,5,0,0,0,1.92-.38,6.32,6.32,0,0,0,1.64-1l.75,1.06a7.51,7.51,0,0,1-2,1.12A6.5,6.5,0,0,1,246.58,145.33Z"/><path class="a" d="M256.48,121.34H258v23.74h-1.47Z"/><path class="a" d="M263.2,128.37a1,1,0,0,1,.34-.74,1.12,1.12,0,0,1,.75-.3,1,1,0,0,1,.75.3,1,1,0,0,1,.32.74,1,1,0,0,1-.32.76,1,1,0,0,1-.75.3,1.09,1.09,0,0,1-.75-.31A1,1,0,0,1,263.2,128.37Zm.31,4.49H265v12.22h-1.47Z"/><path class="a" d="M280,143.89a6.28,6.28,0,0,1-1.91,1.07,7,7,0,0,1-5.56-.46,6,6,0,0,1-2.31-2.26,6.38,6.38,0,0,1-.84-3.28,6.21,6.21,0,0,1,.87-3.28,6.39,6.39,0,0,1,5.5-3.1,7.27,7.27,0,0,1,2.37.38A5.82,5.82,0,0,1,280,134l-.78,1a6,6,0,0,0-1.53-.87,5.11,5.11,0,0,0-1.88-.35,4.76,4.76,0,0,0-2.51.69,5,5,0,0,0-1.81,1.86,5.13,5.13,0,0,0-.68,2.61,5.06,5.06,0,0,0,.68,2.57,4.84,4.84,0,0,0,1.84,1.86,5.27,5.27,0,0,0,4.36.39,5.47,5.47,0,0,0,1.47-.79Z"/><path class="a" d="M289.13,145.33a6.28,6.28,0,0,1-3.17-.8,5.81,5.81,0,0,1-2.25-2.23,7.25,7.25,0,0,1,.05-6.83,5.83,5.83,0,0,1,2.37-2.22,7.41,7.41,0,0,1,3.41-.76,5.79,5.79,0,0,1,5.15,3.41l-.22.43.19-3.47H296v12.22H294.5V141.3l.32.56a4,4,0,0,1-.75,1.24,6.87,6.87,0,0,1-1.3,1.12,6.14,6.14,0,0,1-1.69.81A6.22,6.22,0,0,1,289.13,145.33Zm.31-1.25a5.26,5.26,0,0,0,2.49-.58,4.63,4.63,0,0,0,1.79-1.61,4.74,4.74,0,0,0,.78-2.37v-1.75a4.74,4.74,0,0,0-1-2.06,5.39,5.39,0,0,0-1.8-1.44,5.31,5.31,0,0,0-4.84.11,4.89,4.89,0,0,0-1.84,1.8,5.19,5.19,0,0,0-.69,2.72,5,5,0,0,0,.69,2.6,5.32,5.32,0,0,0,1.86,1.88A4.84,4.84,0,0,0,289.44,144.08Z"/><path class="a" d="M302.75,127.49h1.5V133H308v1.19h-3.78v10.87h-1.5V134.21h-2.59V133h2.59Z"/><path class="a" d="M317,145.33a6.7,6.7,0,0,1-3.38-.84,6.16,6.16,0,0,1-2.29-2.3,6.5,6.5,0,0,1-.83-3.26,6.25,6.25,0,0,1,.87-3.25,6.72,6.72,0,0,1,2.36-2.35,6.41,6.41,0,0,1,3.3-.87,5.43,5.43,0,0,1,3.67,1.28,7.19,7.19,0,0,1,2.14,3.34l-10.68,4.13-.44-1.07,9.78-3.81-.31.44a6,6,0,0,0-1.61-2.16,4,4,0,0,0-2.64-.9,4.73,4.73,0,0,0-2.53.69,5.09,5.09,0,0,0-2.47,4.46,5.26,5.26,0,0,0,.64,2.56,4.92,4.92,0,0,0,4.45,2.63,5,5,0,0,0,1.92-.38,6.32,6.32,0,0,0,1.64-1l.75,1.06a7.51,7.51,0,0,1-2,1.12A6.5,6.5,0,0,1,317,145.33Z"/><path class="a" d="M329.78,145.33a6.93,6.93,0,0,1-2.22-.39,4,4,0,0,1-1.88-1.27l.69-1a4.81,4.81,0,0,0,1.49,1,4.56,4.56,0,0,0,3.18.19,2.13,2.13,0,0,0,1-.7,2.07,2.07,0,0,0,.4-1.35,1.79,1.79,0,0,0-.48-1.34,3.8,3.8,0,0,0-1.22-.77c-.49-.19-1-.37-1.54-.54a6.28,6.28,0,0,1-2.21-1.19,2.68,2.68,0,0,1-.86-2.12,3.09,3.09,0,0,1,.49-1.75A3.32,3.32,0,0,1,328,133a4.18,4.18,0,0,1,1.9-.42,6,6,0,0,1,1.92.32,4.4,4.4,0,0,1,1.74,1.06l-.66,1a2.5,2.5,0,0,0-1.33-.94,6.43,6.43,0,0,0-1.45-.28A3.08,3.08,0,0,0,329,134a2.61,2.61,0,0,0-1,.64,1.57,1.57,0,0,0-.39,1.11,1.69,1.69,0,0,0,.41,1.17,3.05,3.05,0,0,0,1.05.74c.42.18.86.36,1.32.53a11.26,11.26,0,0,1,1.71.67,3.82,3.82,0,0,1,1.31,1,2.65,2.65,0,0,1,.51,1.7,3.85,3.85,0,0,1-.47,1.92,3.24,3.24,0,0,1-1.39,1.35A5,5,0,0,1,329.78,145.33Z"/><path class="a" d="M341.27,145.33a6.92,6.92,0,0,1-2.21-.39,4,4,0,0,1-1.88-1.27l.69-1a4.88,4.88,0,0,0,1.48,1,4.58,4.58,0,0,0,3.19.19,2.17,2.17,0,0,0,1-.7,2.07,2.07,0,0,0,.4-1.35,1.79,1.79,0,0,0-.48-1.34,3.92,3.92,0,0,0-1.22-.77c-.49-.19-1-.37-1.55-.54a6.23,6.23,0,0,1-2.2-1.19,2.68,2.68,0,0,1-.86-2.12,3.17,3.17,0,0,1,.48-1.75,3.46,3.46,0,0,1,1.33-1.18,4.25,4.25,0,0,1,1.91-.42,6.13,6.13,0,0,1,1.92.32,4.44,4.44,0,0,1,1.73,1.06l-.65,1a2.54,2.54,0,0,0-1.33-.94,6.53,6.53,0,0,0-1.45-.28,3,3,0,0,0-1.11.22,2.53,2.53,0,0,0-1,.64,1.57,1.57,0,0,0-.39,1.11,1.64,1.64,0,0,0,.41,1.17,3,3,0,0,0,1,.74c.43.18.87.36,1.33.53a11.14,11.14,0,0,1,1.7.67,3.73,3.73,0,0,1,1.31,1,2.6,2.6,0,0,1,.52,1.7,4,4,0,0,1-.47,1.92,3.24,3.24,0,0,1-1.39,1.35A5,5,0,0,1,341.27,145.33Z"/><path class="a" d="M355.21,145.33a6.7,6.7,0,0,1-3.38-.84,6.09,6.09,0,0,1-2.29-2.3,6.4,6.4,0,0,1-.83-3.26,6.25,6.25,0,0,1,.87-3.25,6.72,6.72,0,0,1,2.36-2.35,6.41,6.41,0,0,1,3.3-.87,5.43,5.43,0,0,1,3.67,1.28,7.19,7.19,0,0,1,2.14,3.34l-10.69,4.13-.43-1.07,9.78-3.81-.32.44a5.73,5.73,0,0,0-1.61-2.16,4,4,0,0,0-2.64-.9,4.76,4.76,0,0,0-2.53.69,5,5,0,0,0-1.79,1.84,5.08,5.08,0,0,0-.67,2.62,5.26,5.26,0,0,0,.64,2.56,4.92,4.92,0,0,0,4.45,2.63,5.09,5.09,0,0,0,1.92-.38,6.49,6.49,0,0,0,1.64-1l.75,1.06a7.58,7.58,0,0,1-2,1.12A6.45,6.45,0,0,1,355.21,145.33Z"/><path class="a" d="M366.39,132.86l.16,3.85-.19-.75a4.66,4.66,0,0,1,2-2.52,6.17,6.17,0,0,1,3.3-.92,3.84,3.84,0,0,1,2.78,1,3.55,3.55,0,0,1,1.09,2.64v8.9h-1.49v-8.5a3,3,0,0,0-.75-2,2.81,2.81,0,0,0-2.1-.81,4.57,4.57,0,0,0-2.28.6,4.49,4.49,0,0,0-1.7,1.65,4.66,4.66,0,0,0-.64,2.47v6.56h-1.47V132.86Z"/><path class="a" d="M391.45,145.08V122.9h5.46a13.49,13.49,0,0,1,5.49,1,10.29,10.29,0,0,1,3.67,2.67,11,11,0,0,1,2.06,3.63,12.19,12.19,0,0,1,.66,3.9,11.36,11.36,0,0,1-.88,4.55,10.31,10.31,0,0,1-2.39,3.45,10.66,10.66,0,0,1-3.45,2.21,11,11,0,0,1-4.09.76Zm1.53-1.47h4.59a10.79,10.79,0,0,0,3.75-.65,9.23,9.23,0,0,0,3.08-1.91,8.89,8.89,0,0,0,2.07-3,10.22,10.22,0,0,0,.75-4,10.37,10.37,0,0,0-.64-3.64,8.78,8.78,0,0,0-1.92-3.08,9.16,9.16,0,0,0-3.15-2.12,11.34,11.34,0,0,0-4.38-.78H393Z"/><path class="a" d="M419,145.33a6.66,6.66,0,0,1-3.37-.84,6.12,6.12,0,0,1-2.3-2.3,6.5,6.5,0,0,1-.83-3.26,6.17,6.17,0,0,1,.88-3.25,6.64,6.64,0,0,1,2.36-2.35,6.4,6.4,0,0,1,3.29-.87,5.43,5.43,0,0,1,3.67,1.28,7.11,7.11,0,0,1,2.14,3.34l-10.68,4.13-.44-1.07,9.78-3.81-.31.44a5.84,5.84,0,0,0-1.61-2.16,4,4,0,0,0-2.64-.9,4.73,4.73,0,0,0-2.53.69,5.09,5.09,0,0,0-2.47,4.46,5.26,5.26,0,0,0,.64,2.56,5,5,0,0,0,1.8,1.91,4.9,4.9,0,0,0,2.65.72,5,5,0,0,0,1.92-.38,6.16,6.16,0,0,0,1.64-1l.75,1.06a7.51,7.51,0,0,1-2,1.12A6.5,6.5,0,0,1,419,145.33Z"/><path class="a" d="M428.91,121.34h1.46v23.74h-1.46Z"/><path class="a" d="M435.62,128.37a1,1,0,0,1,.35-.74,1.12,1.12,0,0,1,.75-.3,1.05,1.05,0,0,1,.75.3,1,1,0,0,1,.31.74,1,1,0,0,1-.31.76,1.05,1.05,0,0,1-.75.3,1.09,1.09,0,0,1-.75-.31A1,1,0,0,1,435.62,128.37Zm.31,4.49h1.47v12.22h-1.47Z"/><path class="a" d="M447.24,145.55l-6.18-12.69h1.72l5.09,11.1-.91,0,4.91-11.06h1.62l-6.06,12.69Z"/><path class="a" d="M462.3,145.33a6.66,6.66,0,0,1-3.37-.84,6.12,6.12,0,0,1-2.3-2.3,6.5,6.5,0,0,1-.83-3.26,6.26,6.26,0,0,1,.88-3.25,6.64,6.64,0,0,1,2.36-2.35,6.4,6.4,0,0,1,3.29-.87,5.42,5.42,0,0,1,3.67,1.28,7.11,7.11,0,0,1,2.14,3.34l-10.68,4.13-.44-1.07,9.78-3.81-.31.44a5.84,5.84,0,0,0-1.61-2.16,4,4,0,0,0-2.64-.9,4.73,4.73,0,0,0-2.53.69,5.09,5.09,0,0,0-2.47,4.46,5.26,5.26,0,0,0,.64,2.56,5,5,0,0,0,1.8,1.91,4.9,4.9,0,0,0,2.65.72,5,5,0,0,0,1.92-.38,6.38,6.38,0,0,0,1.65-1l.75,1.06a7.73,7.73,0,0,1-2,1.12A6.5,6.5,0,0,1,462.3,145.33Z"/><path class="a" d="M473.49,132.86l.15,3.75-.18-.46a4.78,4.78,0,0,1,1.28-1.94,6.31,6.31,0,0,1,1.95-1.25,5.55,5.55,0,0,1,2.08-.44L478.7,134a5.28,5.28,0,0,0-2.54.62,4.94,4.94,0,0,0-1.81,1.67,4.28,4.28,0,0,0-.68,2.36v6.47h-1.46V132.86Z"/><path class="a" d="M486.76,145.21,481,132.86h1.66l5.28,11.56ZM484,151l8-18.09h1.44L485.55,151Z"/><rect class="b" x="184.44" y="-171.6" width="175.56" height="529.04" transform="translate(179.3 365.15) rotate(-90)"/><rect class="b" x="179.66" y="-166.93" width="175.19" height="525.72" transform="translate(171.33 363.19) rotate(-90)"/><path class="a" d="M102.43,150.81c-1.46.93-3,1.84-4.56,2.71"/><path class="a" d="M121.08,32.77c7,29.77,10.24,50.5,11.1,60.37a60.36,60.36,0,0,1-.22,12.75l-.76,5.32a43.65,43.65,0,0,1-2.2,8.53c-.12.37-1.24,3.53-1.52,4.1-4.1,8.29-5.67,9.13-8.79,13.21-2.31,3-8.32,8.71-16.26,13.76"/><path class="a" d="M102.43,150.81c2.49-1.83,4.6-3.34,4.6-3.34-2.49,1.43-6.41,4.49-9.14,5.82l-3.44,1.39a35.68,35.68,0,0,1-11,2.13,22.8,22.8,0,0,1-11.61-2.92s-6.66-3.12-9.76-5c-1.11-.69-2.2-1.42-3.25-2.17,1.37,1.17,3.34,2.82,5.31,4.42"/><path class="a" d="M102.43,150.81c-1.87,1.38-4,2.94-5.57,4.17-1.13.88-2.93,1.64-4.87,3-1.47,1.05-2.07,3.71-2.48,4.67h0a11.44,11.44,0,0,1-3.15,1.27,11.57,11.57,0,0,1-2.78.34,11.39,11.39,0,0,1-3.27-.47h0a11.08,11.08,0,0,1-2.84-1.24,11,11,0,0,0-2-3.38A10.53,10.53,0,0,0,74,157.73a9.21,9.21,0,0,0-1.4-1c-.91-.56-1.84-.77-3.17-1.68l-1.78-1.13c-1.09-.84-2.31-1.82-3.54-2.81"/><path class="a" d="M47,137.3C49.66,142,55.94,146,64.1,151.1,40.93,110.47,41,110,38.51,98.19,35.64,85.14,45,32.77,45,32.77c-7,29.77-10.24,50.5-11.1,60.37a64.86,64.86,0,0,0,.44,12.69A71.92,71.92,0,0,0,47,137.3Z"/><path class="a" d="M64.1,151.1q2,1.25,4.11,2.42"/><path class="a" d="M44.4,94.62s-.06,0-.08-.07"/><path class="a" d="M146.06,122.81c7.35-.55,20.79-2.78,26.17-7.18.32-.25.64-.53,1-.82a23.09,23.09,0,0,0,1.55-7.55,9,9,0,0,0,0-2.88c-.79-.41-1.59-.8-2.41-1.13a1.24,1.24,0,0,1-.2-.1l-1.25-.49h0c-.26-.09-.53-.2-.8-.28l-.77-.25-.15,0c-.41-.14-.83-.26-1.25-.38s-.8-.21-1.21-.3a.67.67,0,0,0-.17-.06c-.36-.08-.72-.16-1.09-.22a.5.5,0,0,0-.19,0c-.4-.09-.82-.17-1.22-.22s-.88-.13-1.33-.19l-1.34-.13c-.45,0-.91-.07-1.36-.08s-2.88-.69-3.35-.69-3.25-.46-3.25-.46a39.05,39.05,0,0,0-5.16-1.07h0c-3.94-1.07-3.94-2-3.29-5.42a.5.5,0,0,0,0-.13v0a10.72,10.72,0,0,1-.19-2h0a1.09,1.09,0,0,1,0-.18c0-.18,0-.37,0-.56s-.1-.46-.17-.69h0c0-.18-.09-.34-.13-.5h0c0-.22-.12-.43-.17-.63-.11-.39-.23-.76-.35-1.13-.25-.75-.53-1.49-.83-2.21-.14-.37-.3-.73-.46-1.11-.07-.16-.15-.32-.23-.48s-.23-.48-.35-.7c-.18-.39-.4-.78-.6-1.17,0-.06-.06-.13-.11-.2-.49-.88-1-1.75-1.6-2.6-.28-.41-.57-.83-.87-1.24a1,1,0,0,1-.1-.15c-.54-.71-1.08-1.39-1.66-2-.13-.16-.28-.32-.43-.48s-.5-.55-.76-.82c-.46-.49-.93-1-1.44-1.41s-.72-.67-1.09-1c-.08-.08-.18-.15-.27-.23-.47-.38-.94-.77-1.43-1.13s-1-.76-1.59-1.14l-.05,0c-.56-.38-.41-.72-1-1.05,0,0-1.42-4.77-1.8-6.39-1.67-7.1-.53-20.14-5.45-28.66,0,0-10.1,10.38-12.51,14.77a54.85,54.85,0,0,0-6.1,15.61c-5.25,1.17-10.29,4.26-14.35,7.49a35,35,0,0,0-9.56,11.81c-.33.67-.72,1.28-1,2-.08.15-.15.32-.22.48l-.06.15a19.4,19.4,0,0,1-1.11,2.56,23.52,23.52,0,0,1-19.28,12.81c-.55,0-1.11.07-1.67.07l-.35,0C48,99.92,38.79,97.64,40.38,85.82c.1-.79.72-4.29.87-5.07A47,47,0,0,1,43,75.33a80,80,0,0,0-4.47,7A23.15,23.15,0,0,0,36,89.71a2.91,2.91,0,0,1-.05.4c0,.48-.12,1-.16,1.47v0a58,58,0,0,0-.31,5.93,58.76,58.76,0,0,0,.75,9.34A69.06,69.06,0,0,0,59,147.53s.06.06.1.09a65.63,65.63,0,0,0,7.7,4.45c5,2.43,7.74,4.19,13.37,5.11h1.44l1.11-.05c9,0,15.56-3.24,21.7-7.65l2.63-1.8a28.33,28.33,0,0,0,4.5-3.53c2-1.91,3.5-2.65,5-5,.48-.24,2.72-2.9,2.75-2.86,1.87-2.73,2.73-4.37,5.3-6.45a22.55,22.55,0,0,1,4.33-2.79,31.63,31.63,0,0,1,3-1.44c.25-.12.5-.21.76-.32A34.16,34.16,0,0,1,143,122.9h.4c.77,0,1.53,0,2.28-.08"/><path class="a" d="M47.78,84.22a7.19,7.19,0,0,1-.2-5.5c.05-.12.1-.23.16-.35h0a9.72,9.72,0,0,1,2.38-3.16L52.62,73l-2.7,1.38a15.46,15.46,0,0,0-5.43,5.68l-.21.37c-.56,1-1.21,2.45-1.27,2.56-.78,1.58-1,4.11-.19,5.34a2.86,2.86,0,0,0,2.47,1.1,3.14,3.14,0,0,0,2.51-2A3.74,3.74,0,0,0,47.78,84.22Z"/></svg>