<svg xmlns="http://www.w3.org/2000/svg" viewBox="0 0 166.01 166.01"><defs><style>.a{fill:#1f292b;}.b{fill:#f2f2f2;stroke:#f2f2f2;stroke-linecap:round;stroke-linejoin:round;stroke-width:0.73px;}.c,.d,.e{stroke:#fff;stroke-miterlimit:10;}.c,.d{stroke-width:0.91px;}.d,.e{fill:#9b2a4d;}.e{stroke-width:0.52px;}</style></defs><title>Recurso 1</title><rect class="a" width="166.01" height="166.01" rx="36.09"/><path class="b" d="M88.63,132.86c-1.34.85-2.74,1.69-4.2,2.49"/><path class="b" d="M105.78,24.29c6.41,27.39,9.42,46.45,10.21,55.53a55.4,55.4,0,0,1-.2,11.73l-.7,4.89a40.33,40.33,0,0,1-2,7.84c-.11.35-1.14,3.25-1.4,3.78-3.78,7.61-5.21,8.39-8.08,12.14-2.13,2.79-7.66,8-15,12.66"/><path class="b" d="M88.63,132.86c2.3-1.69,4.23-3.07,4.23-3.07-2.29,1.32-5.89,4.13-8.41,5.35l-3.16,1.28a33.05,33.05,0,0,1-10.16,2,21,21,0,0,1-10.67-2.69s-6.13-2.87-9-4.63c-1-.64-2-1.31-3-2,1.27,1.08,3.08,2.59,4.89,4.06"/><path class="b" d="M88.63,132.86c-1.72,1.26-3.65,2.7-5.12,3.84-1,.8-2.7,1.5-4.48,2.77-1.35,1-1.91,3.42-2.28,4.3h0a10.79,10.79,0,0,1-8.47,1.05h0a10.52,10.52,0,0,1-2.61-1.15,10.4,10.4,0,0,0-1.84-3.11,11.22,11.22,0,0,0-1.34-1.33,9.06,9.06,0,0,0-1.3-.93c-.83-.51-1.68-.7-2.91-1.54l-1.64-1c-1-.77-2.12-1.67-3.25-2.59"/><path class="b" d="M37.66,120.43c2.44,4.32,8.21,8,15.72,12.69C32.07,95.76,32.17,95.28,29.84,84.46c-2.63-12,6-60.17,6-60.17-6.41,27.39-9.42,46.45-10.2,55.53A58.4,58.4,0,0,0,26,91.49,66.08,66.08,0,0,0,37.66,120.43Z"/><path class="b" d="M53.38,133.12q1.83,1.15,3.78,2.23"/><path class="c" d="M35.26,81.18a.2.2,0,0,1-.07-.06"/><path class="d" d="M128.76,107.1c6.75-.5,19.11-2.55,24.06-6.59.3-.24.59-.49.89-.76a21.09,21.09,0,0,0,1.42-6.94,8.14,8.14,0,0,0,0-2.65,23.37,23.37,0,0,0-2.21-1l-.18-.09c-.39-.16-.77-.31-1.16-.45h0c-.25-.09-.49-.19-.74-.26s-.47-.16-.71-.23l-.14,0-1.15-.35c-.37-.11-.74-.19-1.11-.28l-.16,0-1-.21-.17,0c-.37-.08-.75-.15-1.12-.2s-.81-.12-1.23-.17-.82-.09-1.23-.12-.83-.07-1.25-.08-2.65-.63-3.08-.63-3-.42-3-.42a34.82,34.82,0,0,0-4.75-1h0c-3.62-1-3.62-1.88-3-5a.45.45,0,0,0,0-.11v0a9.94,9.94,0,0,1-.17-1.82h0a.92.92,0,0,1,0-.16c0-.18,0-.35,0-.52s-.1-.43-.16-.64h0c0-.16-.09-.31-.12-.46h0l-.16-.58c-.09-.35-.2-.7-.32-1-.23-.69-.49-1.36-.76-2-.13-.34-.28-.67-.43-1-.06-.14-.13-.29-.21-.44s-.2-.44-.31-.65l-.56-1.07a1.62,1.62,0,0,0-.1-.18q-.68-1.22-1.47-2.4l-.8-1.14s-.07-.08-.1-.13c-.49-.65-1-1.28-1.52-1.88-.12-.15-.26-.3-.39-.44l-.7-.75c-.43-.46-.86-.89-1.33-1.31s-.66-.61-1-.89a2.41,2.41,0,0,0-.24-.21c-.43-.36-.86-.71-1.32-1s-.95-.7-1.46-1l0,0a4.33,4.33,0,0,1-1.3-1c-1.36-1.93-1.45-7-1.77-9.3-.36-2.65-.85-8.13-1.31-10.72A84.07,84.07,0,0,0,106.06,23c-3.11,2-4.31,4-6.26,7-2.73,4.16-6.35,15.62-7.38,22.22-6.5.59-12.58,4-16.31,7A32,32,0,0,0,67.31,70c-.31.61-.66,1.18-1,1.8-.07.14-.13.3-.19.44s0,.1-.06.14a19.76,19.76,0,0,1-1,2.36A21.64,21.64,0,0,1,47.34,86.51c-.5,0-1,.06-1.53.06h-.32c-6.93-.5-15.39-2.6-13.93-13.47.1-.73.66-4,.81-4.67a43.84,43.84,0,0,1,1.61-5,74.66,74.66,0,0,0-4.11,6.44,21.26,21.26,0,0,0-2.31,6.78c0,.13,0,.25,0,.37-.05.44-.11.9-.15,1.35v0a54.48,54.48,0,0,0-.28,5.45,53,53,0,0,0,.69,8.6,63.47,63.47,0,0,0,20.9,37.37.27.27,0,0,0,.1.08A59.39,59.39,0,0,0,55.84,134c4.56,2.24,7.12,3.86,12.3,4.71h1.32l1-.05c8.32,0,14.31-3,20-7,0,0,2.39-1.65,2.41-1.66A25.44,25.44,0,0,0,97,126.73c1.85-1.76,3.22-2.43,4.61-4.6a33.65,33.65,0,0,0,2.52-2.63c1.72-2.5,2.52-4,4.88-5.93a20.64,20.64,0,0,1,4-2.56,30.28,30.28,0,0,1,2.75-1.33c.23-.11.47-.19.7-.29a31.36,31.36,0,0,1,9.51-2.2h.37c.7,0,1.4,0,2.08-.07"/><path class="e" d="M40.88,70.46a6.53,6.53,0,0,1-.19-5c0-.11.09-.22.14-.33h0A9.34,9.34,0,0,1,43,62.16l2.3-2-2.49,1.27a14.27,14.27,0,0,0-5,5.22c-.06.11-.12.23-.19.34-.51.91-1.11,2.26-1.17,2.36-.71,1.46-.92,3.78-.17,4.91a2.7,2.7,0,0,0,2.27,1,2.9,2.9,0,0,0,2.31-1.82A3.47,3.47,0,0,0,40.88,70.46Z"/></svg>