<svg xmlns="http://www.w3.org/2000/svg" viewBox="0 0 205.84 239.84"><defs><style>.a{fill:#0c0c0c;}.b{fill:none;stroke:#0c0c0c;stroke-linecap:round;stroke-miterlimit:10;}</style></defs><path class="a" d="M24.89,158.89v-.62H29c1.51,0,3,0,4.52-.07s3-.07,4.51-.07a34.61,34.61,0,0,1,4.2.27,23.79,23.79,0,0,1,4.38.95,19.78,19.78,0,0,1,4.12,1.84,13.33,13.33,0,0,1,3.45,2.92,13.66,13.66,0,0,1,2.39,4.2,18.8,18.8,0,0,1,0,11.37,13.83,13.83,0,0,1-2.37,4.2,13.37,13.37,0,0,1-3.38,2.92,19.72,19.72,0,0,1-4,1.84,21.94,21.94,0,0,1-4.07,1,28.36,28.36,0,0,1-3.74.27c-1.68,0-3.36,0-5-.05s-3.34,0-5,0H24.89v-.62H29V158.89Zm12.84,30.39a15.73,15.73,0,0,0,4.91-.68,10.61,10.61,0,0,0,3.43-1.86,9.53,9.53,0,0,0,2.21-2.68,13.84,13.84,0,0,0,1.24-3.16,20.17,20.17,0,0,0,.55-3.32c.09-1.11.13-2.15.13-3.12a43.82,43.82,0,0,0-.44-6.48A12.85,12.85,0,0,0,48,163a8.48,8.48,0,0,0-3.67-3.16,14.77,14.77,0,0,0-6.22-1.11q-.88,0-1.59,0a6.58,6.58,0,0,0-1.15.11v30.26A22.59,22.59,0,0,0,37.73,189.28Z"/><path class="a" d="M75.82,158.27v.62H71.75v30.26h4.07v.62H61.26v-.62h4.07V158.89H61.26v-.62Z"/><path class="a" d="M89.49,158.27l14.73,21.06h.09V158.89h-4.07v-.62h8.85v.62H105v30.88h-1.19L83.92,161.41h-.09v27.74H87.9v.62H79.05v-.62h4.07V158.89H79.05v-.62Z"/><path class="a" d="M138.6,167.29a15.36,15.36,0,0,0-3.45-6.75,8,8,0,0,0-6.15-2.36,9.13,9.13,0,0,0-4.91,1.17,7.94,7.94,0,0,0-2.85,3.05,12.51,12.51,0,0,0-1.31,4.3,37.5,37.5,0,0,0-.31,4.88v3.85a36.71,36.71,0,0,0,.53,6.77,12.18,12.18,0,0,0,1.66,4.43,6.38,6.38,0,0,0,2.92,2.41,11.26,11.26,0,0,0,4.27.73,6.13,6.13,0,0,0,3.23-.73,4.9,4.9,0,0,0,1.84-2,8.68,8.68,0,0,0,.82-3c.11-1.15.17-2.4.17-3.76v-1.68h-4.55V178h13.67v.62H141.3v10.13h-.8a1,1,0,0,0-.5-.77,1.81,1.81,0,0,0-1-.25,5,5,0,0,0-2,.42l-2.06.91a19.43,19.43,0,0,1-2.54.91,12.53,12.53,0,0,1-3.47.42,16,16,0,0,1-6.24-1.26,16.85,16.85,0,0,1-8.94-8.61,15.83,15.83,0,0,1,.16-13.23,17.5,17.5,0,0,1,9.24-8.56,15.57,15.57,0,0,1,5.78-1.17,12.63,12.63,0,0,1,2.56.26c.83.18,1.6.37,2.3.56s1.35.37,1.91.55a4.78,4.78,0,0,0,1.41.27,1.56,1.56,0,0,0,.89-.2,1.81,1.81,0,0,0,.48-.73h.76v9Z"/><path class="a" d="M148.14,167.29a17.42,17.42,0,0,1,9.27-8.56,15.66,15.66,0,0,1,5.79-1.17,16.6,16.6,0,0,1,6,1.15,16.86,16.86,0,0,1,5.31,3.27,16.52,16.52,0,0,1,3.76,5.16,15.73,15.73,0,0,1,1.44,6.83,15.13,15.13,0,0,1-1.35,6.31,17.32,17.32,0,0,1-3.63,5.24,17.1,17.1,0,0,1-5.26,3.56,15.61,15.61,0,0,1-6.31,1.31,16.08,16.08,0,0,1-6.28-1.26,16.85,16.85,0,0,1-8.94-8.61,15.83,15.83,0,0,1,.16-13.23Zm6.21,14.45a13.55,13.55,0,0,0,1.66,4.82,6,6,0,0,0,2.92,2.5,11.68,11.68,0,0,0,4.27.71,9.29,9.29,0,0,0,5.13-1.22,7.44,7.44,0,0,0,2.79-3.36,16.09,16.09,0,0,0,1.17-5.09q.26-2.94.25-6.39,0-3.11-.2-5.91a15,15,0,0,0-1.13-5,7.66,7.66,0,0,0-2.81-3.41,11.21,11.21,0,0,0-10.15-.09,7.47,7.47,0,0,0-2.84,3.3,16.44,16.44,0,0,0-1.28,5,60.31,60.31,0,0,0-.31,6.42A45.92,45.92,0,0,0,154.35,181.74Z"/><path class="a" d="M50.23,218V198.18h5.25a14.53,14.53,0,0,1,5.42.9,10.17,10.17,0,0,1,3.64,2.39,9.48,9.48,0,0,1,2,3.24,10.1,10.1,0,0,1,.64,3.45,9.18,9.18,0,0,1-3.22,7.2,10.63,10.63,0,0,1-3.42,2,12.12,12.12,0,0,1-4.05.68Zm1.09-.92H56.2a11.78,11.78,0,0,0,3.83-.62,9.64,9.64,0,0,0,3.17-1.8,8.55,8.55,0,0,0,2.15-2.83,8.64,8.64,0,0,0,.78-3.75,9,9,0,0,0-.62-3.26A8.18,8.18,0,0,0,63.57,202a9.7,9.7,0,0,0-3.3-2.05,13.13,13.13,0,0,0-4.73-.77H51.32Z"/><path class="a" d="M78.19,218.23a7,7,0,0,1-3.25-.74,5.86,5.86,0,0,1-2.26-2,5.19,5.19,0,0,1-.83-2.88,5,5,0,0,1,.86-2.84A6.36,6.36,0,0,1,75,207.67a6.78,6.78,0,0,1,3.22-.77,5.55,5.55,0,0,1,3.49,1.1,6.59,6.59,0,0,1,2.11,2.81L73.1,214.6l-.31-.73,10.06-3.6-.22.34a5.68,5.68,0,0,0-1.74-2,4.42,4.42,0,0,0-2.73-.85,5.51,5.51,0,0,0-2.66.65,5.17,5.17,0,0,0-1.89,1.73,4.43,4.43,0,0,0-.7,2.43,4.6,4.6,0,0,0,.66,2.38,4.88,4.88,0,0,0,1.86,1.8,5.5,5.5,0,0,0,2.79.69,5.61,5.61,0,0,0,2-.36,6,6,0,0,0,1.7-.94l.56.71a7.48,7.48,0,0,1-2,1A7,7,0,0,1,78.19,218.23Z"/><path class="a" d="M88.75,196.78h1.06V218H88.75Z"/><path class="a" d="M96,203.5a.66.66,0,0,1,.28-.54,1,1,0,0,1,.66-.22.89.89,0,0,1,.6.22.68.68,0,0,1,.27.54.71.71,0,0,1-.27.56.9.9,0,0,1-.6.23,1,1,0,0,1-.66-.23A.69.69,0,0,1,96,203.5Zm.34,3.71h1.06V218H96.31Z"/><path class="a" d="M102.68,201.47a3.26,3.26,0,0,0,1-1.44,3.38,3.38,0,0,0,.1-1.87l1.06-.2a3.89,3.89,0,0,1,0,1.52,4.37,4.37,0,0,1-.56,1.4,4.09,4.09,0,0,1-1.07,1.13Z"/><path class="a" d="M114,218.48l-5.9-11.27h1.22l5.12,10.23-.62,0,5-10.21H120l-5.81,11.27Z"/><path class="a" d="M129.62,218.23a7,7,0,0,1-3.25-.74,5.89,5.89,0,0,1-2.27-2,5.19,5.19,0,0,1-.83-2.88,5,5,0,0,1,.86-2.84,6.31,6.31,0,0,1,2.3-2.07,6.75,6.75,0,0,1,3.22-.77,5.54,5.54,0,0,1,3.48,1.1,6.51,6.51,0,0,1,2.11,2.81l-10.72,3.79-.31-.73,10.06-3.6-.22.34a5.55,5.55,0,0,0-1.73-2,4.43,4.43,0,0,0-2.74-.85,5.45,5.45,0,0,0-2.65.65,5.17,5.17,0,0,0-1.89,1.73,4.35,4.35,0,0,0-.71,2.43,4.6,4.6,0,0,0,.66,2.38,5,5,0,0,0,1.86,1.8,5.51,5.51,0,0,0,2.8.69,5.59,5.59,0,0,0,2-.36,5.85,5.85,0,0,0,1.7-.94l.57.71a7.71,7.71,0,0,1-2,1A6.93,6.93,0,0,1,129.62,218.23Z"/><path class="a" d="M141.08,207.21l.12,3.34-.12-.36a4.17,4.17,0,0,1,1.2-1.73,5.93,5.93,0,0,1,1.91-1.1,6.79,6.79,0,0,1,2.14-.4l0,.92a5.62,5.62,0,0,0-2.55.57,4.91,4.91,0,0,0-1.83,1.49,3.45,3.45,0,0,0-.68,2.13v6h-1.07V207.21Z"/><path class="a" d="M155.11,218.15l-5.66-10.94h1.16l5.31,10.43Zm-2.66,5.09,7.84-16h1.06l-7.74,16Z"/><rect class="b" x="-9.76" y="24.39" width="229.01" height="190.21" transform="translate(-14.75 224.24) rotate(-90)"/><rect class="b" x="-14.06" y="27.31" width="229.01" height="190.21" transform="translate(-21.97 222.86) rotate(-90)"/><path class="a" d="M86.67,140q-2,1.29-4.23,2.51"/><path class="a" d="M104,30.58c6.46,27.59,9.49,46.81,10.28,56a54.93,54.93,0,0,1-.2,11.82l-.7,4.93a40.24,40.24,0,0,1-2,7.9c-.11.35-1.15,3.28-1.41,3.81-3.8,7.67-5.25,8.45-8.14,12.24C99.59,130,94,135.3,86.67,140"/><path class="a" d="M86.67,140c2.31-1.7,4.25-3.1,4.25-3.1-2.3,1.33-5.93,4.17-8.46,5.4l-3.19,1.28a32.92,32.92,0,0,1-10.24,2,21.16,21.16,0,0,1-10.75-2.71s-6.17-2.89-9-4.67c-1-.63-2-1.31-3-2,1.27,1.09,3.1,2.61,4.92,4.09"/><path class="a" d="M86.67,140c-1.74,1.27-3.69,2.72-5.16,3.87-1.05.81-2.72,1.51-4.52,2.79-1.36,1-1.92,3.44-2.29,4.33h0a10.78,10.78,0,0,1-2.92,1.18,11,11,0,0,1-2.58.31,10.89,10.89,0,0,1-3-.43h0a10.52,10.52,0,0,1-2.63-1.16,10.74,10.74,0,0,0-3.21-4.47,10,10,0,0,0-1.3-.94,33.09,33.09,0,0,1-2.93-1.55l-1.66-1.05c-1-.78-2.14-1.68-3.28-2.61"/><path class="a" d="M35.31,127.46c2.45,4.35,8.27,8,15.83,12.78-21.47-37.64-21.37-38.13-23.72-49-2.65-12.09,6-60.63,6-60.63C27,58.17,24,77.39,23.16,86.53a58.53,58.53,0,0,0,.41,11.76A66.39,66.39,0,0,0,35.31,127.46Z"/><path class="a" d="M51.14,140.24c1.23.77,2.5,1.53,3.82,2.25"/><path class="a" d="M32.89,87.91l-.08-.07"/><path class="a" d="M127.1,114c6.81-.51,19.26-2.58,24.25-6.65.3-.24.59-.5.89-.77a21.35,21.35,0,0,0,1.44-7,8,8,0,0,0,0-2.67c-.73-.38-1.47-.74-2.22-1l-.19-.08c-.38-.17-.77-.31-1.16-.46h0c-.24-.09-.49-.19-.74-.26s-.47-.16-.72-.24l-.13,0-1.17-.34c-.37-.11-.74-.2-1.11-.29l-.16,0-1-.21-.17,0c-.37-.08-.75-.15-1.12-.2s-.82-.13-1.24-.17l-1.24-.13c-.42,0-.84-.06-1.26-.07s-2.67-.64-3.11-.64-3-.43-3-.43a35,35,0,0,0-4.78-1h0c-3.65-1-3.65-1.89-3.05-5,0,0,0-.07,0-.11s0,0,0,0a10.07,10.07,0,0,1-.17-1.84h0a.86.86,0,0,1,0-.16c0-.17,0-.35,0-.52s-.1-.43-.16-.64h0c0-.17-.09-.31-.12-.46l0,0-.16-.58c-.1-.36-.21-.7-.32-1.05-.23-.69-.49-1.37-.77-2-.13-.35-.28-.68-.43-1-.06-.15-.14-.3-.21-.44s-.21-.45-.32-.66c-.17-.36-.37-.72-.56-1.08,0-.06-.06-.12-.1-.18-.46-.82-1-1.62-1.48-2.42-.26-.38-.53-.76-.81-1.15,0,0-.07-.08-.1-.13-.49-.66-1-1.29-1.53-1.9l-.4-.44c-.23-.26-.47-.51-.7-.76-.44-.45-.87-.89-1.34-1.31s-.67-.62-1-.9a2.52,2.52,0,0,0-.25-.21c-.43-.36-.87-.72-1.33-1s-1-.71-1.47-1.06l-.05,0c-.52-.35-.38-.66-.91-1,0,0-1.31-4.42-1.66-5.92-1.55-6.58-.49-18.67-5.06-26.57,0,0-9.36,9.62-11.58,13.69a50.66,50.66,0,0,0-5.66,14.47c-4.86,1.09-9.53,3.95-13.3,6.95a32.37,32.37,0,0,0-8.86,10.94c-.31.61-.66,1.18-1,1.82a2.94,2.94,0,0,0-.2.44L64,79a18.45,18.45,0,0,1-1,2.37A21.76,21.76,0,0,1,45.06,93.27c-.51,0-1,.06-1.55.06h-.32c-7-.5-15.5-2.62-14-13.57.1-.73.67-4,.81-4.7a44.57,44.57,0,0,1,1.63-5,75.91,75.91,0,0,0-4.15,6.49,21.23,21.23,0,0,0-2.32,6.83c0,.13,0,.25-.05.37,0,.45-.12.91-.15,1.37v0a52.6,52.6,0,0,0-.29,5.5,53.83,53.83,0,0,0,.7,8.66A63.86,63.86,0,0,0,46.4,136.93a.22.22,0,0,0,.1.09,59.45,59.45,0,0,0,7.12,4.12c4.6,2.25,7.18,3.89,12.4,4.74h1.33l1,0c8.38,0,14.42-3,20.11-7.09l2.43-1.67a25.92,25.92,0,0,0,4.18-3.28c1.86-1.77,3.24-2.45,4.64-4.63a36.52,36.52,0,0,0,2.55-2.65c1.73-2.53,2.53-4,4.91-6a20.83,20.83,0,0,1,4-2.59,28.17,28.17,0,0,1,2.77-1.33c.24-.12.47-.2.71-.3a31.76,31.76,0,0,1,9.58-2.22,2.23,2.23,0,0,0,.37,0c.7,0,1.41,0,2.1-.08"/><path class="a" d="M36,78.27a6.66,6.66,0,0,1-.18-5.1,3.09,3.09,0,0,1,.14-.32v0a9,9,0,0,1,2.21-2.92l2.31-2L38,69.16a14.31,14.31,0,0,0-5,5.26l-.2.34c-.51.91-1.12,2.27-1.17,2.38-.73,1.47-.93,3.81-.18,4.94a2.71,2.71,0,0,0,2.29,1A2.94,2.94,0,0,0,36,81.28,3.48,3.48,0,0,0,36,78.27Z"/></svg>