<svg xmlns="http://www.w3.org/2000/svg" viewBox="0 0 187.12 218.03"><defs><style>.a{fill:#f2f2f2;}</style></defs><path class="a" d="M91.22,162.16c-1.6,1-3.27,2-5,3"/><path class="a" d="M111.7,32.53C119.35,65.22,123,88,123.89,98.83a66.16,66.16,0,0,1-.24,14l-.84,5.84A46.91,46.91,0,0,1,120.4,128c-.13.41-1.36,3.88-1.67,4.51-4.51,9.09-6.22,10-9.65,14.5-2.55,3.33-9.14,9.57-17.86,15.11"/><path class="a" d="M91.22,162.16c2.74-2,5-3.66,5-3.66-2.74,1.57-7,4.93-10,6.39l-3.77,1.52a39,39,0,0,1-12.13,2.34,25.11,25.11,0,0,1-12.75-3.2s-7.31-3.43-10.71-5.54c-1.22-.75-2.42-1.55-3.58-2.39,1.51,1.3,3.67,3.1,5.84,4.86"/><path class="a" d="M91.22,162.16c-2.06,1.51-4.36,3.23-6.11,4.59-1.25,1-3.23,1.79-5.36,3.31-1.61,1.15-2.27,4.08-2.71,5.13h0a12.57,12.57,0,0,1-3.45,1.4,12.88,12.88,0,0,1-3.06.37,12.64,12.64,0,0,1-3.6-.52h0a12.09,12.09,0,0,1-3.12-1.37,12.23,12.23,0,0,0-2.2-3.71,12.65,12.65,0,0,0-1.6-1.59,12,12,0,0,0-1.54-1.11A39.33,39.33,0,0,1,55,166.81l-2-1.24c-1.19-.92-2.54-2-3.88-3.09"/><path class="a" d="M30.36,147.33c2.91,5.15,9.8,9.53,18.77,15.15C23.68,117.86,23.8,117.29,21,104.38,17.87,90,28.15,32.53,28.15,32.53,20.5,65.22,16.9,88,16,98.83a70.52,70.52,0,0,0,.48,13.93A78.91,78.91,0,0,0,30.36,147.33Z"/><path class="a" d="M49.13,162.48q2.17,1.36,4.51,2.66"/><path class="a" d="M27.49,100.46l-.09-.08"/><path class="a" d="M139.14,131.41c8.06-.6,22.82-3,28.73-7.88.35-.28.71-.58,1.06-.91a25,25,0,0,0,1.7-8.28c.07-1.75.3-1.5,0-3.16a28.9,28.9,0,0,0-2.64-1.25l-.22-.1q-.67-.28-1.38-.54h0c-.3-.11-.59-.22-.88-.31l-.85-.28-.16,0-1.38-.42c-.44-.13-.88-.23-1.32-.33a.6.6,0,0,0-.19-.06c-.4-.09-.8-.18-1.21-.25a.51.51,0,0,0-.2,0c-.44-.09-.9-.18-1.34-.24s-1-.15-1.46-.2-1-.11-1.47-.15-1-.07-1.49-.09-3.17-.76-3.68-.76-3.58-.5-3.58-.5a42.17,42.17,0,0,0-5.66-1.18h0c-4.32-1.18-4.32-2.24-3.6-6a.5.5,0,0,1,0-.13,0,0,0,0,1,0,0,11.83,11.83,0,0,1-.2-2.17h0a.62.62,0,0,1,0-.19c0-.21,0-.41,0-.62s-.12-.51-.19-.76v0c-.05-.19-.11-.36-.15-.54h0c-.05-.24-.13-.47-.19-.69-.11-.43-.25-.84-.38-1.25-.28-.82-.58-1.63-.91-2.42-.16-.41-.33-.81-.51-1.22-.07-.17-.16-.35-.25-.52s-.25-.53-.38-.78c-.21-.43-.44-.85-.66-1.28,0-.07-.07-.14-.12-.22-.54-1-1.13-1.92-1.76-2.86l-.95-1.36a.83.83,0,0,1-.12-.16c-.59-.78-1.19-1.53-1.82-2.25-.14-.17-.31-.35-.47-.53s-.55-.6-.83-.89c-.52-.54-1-1.06-1.59-1.55-.39-.37-.79-.74-1.2-1.08l-.29-.24c-.52-.43-1-.86-1.57-1.25s-1.15-.84-1.75-1.25c0,0,0,0-.06,0-.61-.41-.44-.78-1.07-1.15,0,0-1.56-5.24-2-7-1.83-7.8-.58-22.13-6-31.48,0,0-11.1,11.4-13.73,16.22A60,60,0,0,0,92,65.89c-5.76,1.29-11.3,4.68-15.76,8.23a38.57,38.57,0,0,0-10.5,13c-.36.73-.79,1.41-1.14,2.15-.09.17-.16.36-.24.53a.71.71,0,0,1-.07.16,22,22,0,0,1-1.22,2.82,25.77,25.77,0,0,1-21.17,14.06c-.61.06-1.22.08-1.84.08l-.38,0c-8.27-.59-18.37-3.1-16.63-16.08.12-.86.79-4.71,1-5.57a51,51,0,0,1,1.92-6A89.39,89.39,0,0,0,21.05,87a25.47,25.47,0,0,0-2.76,8.1,3.32,3.32,0,0,1-.06.44c-.05.53-.13,1.07-.17,1.61v0a63.61,63.61,0,0,0-.34,6.51,64.5,64.5,0,0,0,.82,10.27,75.79,75.79,0,0,0,25,44.62.4.4,0,0,0,.12.1,71,71,0,0,0,8.44,4.88c5.45,2.67,8.51,4.61,14.69,5.62.08,0,1.51,0,1.58,0l1.22,0c9.93,0,17.09-3.56,23.84-8.41l2.88-2a31.39,31.39,0,0,0,4.94-3.88c2.22-2.1,3.85-2.91,5.5-5.49a41,41,0,0,0,3-3.15c2-3,3-4.79,5.82-7.07a25,25,0,0,1,4.76-3.07,35.33,35.33,0,0,1,3.28-1.58c.28-.13.56-.24.84-.35a37.62,37.62,0,0,1,11.35-2.63,3.24,3.24,0,0,0,.44,0q1.26,0,2.49-.09"/><path class="a" d="M31.21,89A7.78,7.78,0,0,1,31,83a3.29,3.29,0,0,1,.17-.39v0a11,11,0,0,1,2.62-3.46l2.74-2.4-3,1.51a17.09,17.09,0,0,0-6,6.23c-.08.13-.16.27-.23.41C26.75,86,26,87.57,26,87.7c-.86,1.73-1.1,4.51-.21,5.85a3.18,3.18,0,0,0,2.72,1.22,3.44,3.44,0,0,0,2.75-2.17A4.16,4.16,0,0,0,31.21,89Z"/></svg>